<svg version="1.0" xmlns="http://www.w3.org/2000/svg"
     width="1080.000000pt" height="1080.000000pt" viewBox="0 0 1080.000000 1080.000000"
     preserveAspectRatio="xMidYMid meet">

    <g transform="translate(0.000000,1080.000000) scale(0.100000,-0.100000)"
       fill="#9561A4">
        <path d="M0 5400 l0 -5400 5400 0 5400 0 0 5400 0 5400 -5400 0 -5400 0 0
-5400z m5665 1936 c22 -4 74 -11 115 -17 100 -13 320 -59 380 -79 14 -4 43
-13 65 -19 112 -31 312 -101 398 -140 26 -11 68 -31 95 -42 313 -141 722 -391
722 -441 0 -7 -18 -8 -48 -4 -92 12 -345 7 -432 -8 -181 -32 -213 -40 -365
-96 -78 -28 -232 -111 -294 -158 -145 -109 -257 -242 -374 -444 -29 -50 -101
-229 -112 -277 -9 -44 -27 -56 -205 -134 -113 -50 -300 -116 -440 -156 -25 -8
-56 -17 -70 -22 -80 -26 -299 -74 -455 -98 -338 -52 -792 -59 -1105 -16 -465
64 -708 235 -786 555 -21 86 -18 260 6 339 77 259 293 493 659 716 207 126
559 284 901 405 149 53 340 96 575 131 156 24 633 26 770 5z m1581 -824 c12
-8 39 -71 32 -77 -2 -2 -21 8 -42 22 -35 26 -39 26 -64 12 -22 -12 -28 -23
-30 -58 -2 -24 2 -49 7 -54 6 -6 11 -23 11 -39 0 -22 -7 -30 -43 -46 -81 -36
-112 -36 -171 -3 -38 22 -67 31 -99 31 -43 0 -46 -2 -58 -35 -12 -33 -32 -45
-43 -27 -2 4 -52 32 -110 61 -98 49 -121 71 -77 71 9 0 21 4 27 9 18 17 259
90 334 101 225 34 311 43 326 32z m249 -7 c122 -22 191 -41 330 -92 69 -26
235 -113 235 -124 0 -5 -43 -9 -96 -9 -106 0 -167 -11 -234 -43 -78 -38 -76
-61 5 -46 28 5 138 11 245 12 168 2 199 0 221 -15 58 -38 222 -221 299 -334
53 -78 54 -164 4 -223 -34 -41 -71 -41 -127 0 -74 54 -208 108 -363 148 -100
25 -306 61 -355 61 l-35 0 -14 -66 c-21 -106 -51 -184 -149 -374 -76 -151
-102 -186 -138 -193 -15 -3 -48 -11 -73 -17 -169 -43 -336 -61 -590 -61 -295
0 -413 14 -562 68 -169 61 -225 152 -215 348 2 55 12 121 21 146 46 132 208
373 320 475 64 59 225 174 242 174 7 0 59 -38 156 -112 56 -42 197 -108 234
-108 38 0 75 15 214 85 267 134 273 139 264 243 l-6 72 43 0 c24 0 80 -7 124
-15z m-251 -121 l28 -27 -21 -20 c-24 -25 -37 -17 -50 30 -15 50 0 56 43 17z
m-339 -156 c14 -6 24 -16 22 -22 -4 -14 -77 -21 -77 -7 0 5 -3 16 -6 25 -8 20
23 22 61 4z m-4665 -1104 c-5 -27 -13 -116 -16 -199 -7 -162 8 -311 46 -452
40 -148 133 -307 236 -405 l45 -43 -53 -7 c-130 -16 -971 6 -1133 30 l-50 8 3
44 c2 25 -2 87 -8 138 -21 157 -60 186 -184 142 -34 -12 -65 -26 -70 -31 -6
-5 -20 -9 -33 -9 -19 0 -23 5 -23 31 0 17 -5 39 -11 50 -16 30 48 127 156 235
163 165 439 325 735 428 133 47 353 105 363 96 4 -3 3 -28 -3 -56z m7640 57
c0 -14 -59 -60 -97 -76 -20 -8 -59 -15 -88 -15 -43 0 -60 5 -84 26 -33 28 -38
43 -19 62 14 14 288 17 288 3z m105 -128 c28 -3 58 -10 68 -15 18 -9 18 -11 1
-29 -37 -41 -154 -13 -154 37 0 21 4 25 18 19 9 -3 40 -9 67 -12z m-2947 -106
c34 -16 71 -85 74 -137 3 -42 1 -45 -24 -48 -28 -3 -119 42 -177 88 -39 31
-43 81 -8 98 49 24 86 24 135 -1z m3080 -13 c34 -4 65 -10 68 -15 10 -17 -142
-135 -201 -156 -46 -17 -95 -24 -95 -13 0 5 11 26 25 46 22 32 24 43 18 97
l-6 60 64 -6 c35 -4 92 -9 127 -13z m-5813 -184 c43 -27 50 -48 27 -80 -27
-36 -137 -89 -214 -102 -109 -18 -124 3 -61 81 50 62 55 66 98 95 47 32 105
34 150 6z m-3367 -405 c3 -57 1 -61 -25 -77 -38 -22 -128 -109 -136 -130 -5
-15 -20 -18 -102 -18 -72 0 -95 3 -95 13 0 17 77 109 143 169 62 57 153 109
187 105 23 -2 25 -6 28 -62z m296 -22 c20 -73 24 -200 6 -242 -22 -53 -51 -61
-217 -60 -153 0 -215 11 -221 40 -4 20 77 110 132 148 47 32 176 101 221 118
46 17 73 15 79 -4z m2490 -445 c50 -71 -28 -165 -154 -186 -56 -9 -150 -5
-150 7 0 3 42 50 93 103 l92 98 52 0 c42 0 55 -4 67 -22z m-886 -210 c3 -34 1
-36 -60 -63 -73 -33 -172 -47 -163 -23 3 8 23 21 43 27 20 7 64 32 97 56 33
24 65 42 70 41 6 -1 11 -18 13 -38z m46 -104 c33 -13 10 -79 -40 -113 -47 -33
-101 -44 -175 -37 -66 6 -139 29 -139 44 0 4 39 18 86 31 48 12 119 35 158 51
76 31 86 33 110 24z m273 -51 c11 -16 24 -41 31 -56 11 -25 9 -31 -12 -52 -13
-13 -43 -29 -67 -36 -56 -15 -258 -28 -284 -18 -17 6 -15 9 20 23 77 31 145
70 187 109 73 67 96 72 125 30z m411 -23 c39 -37 19 -115 -36 -144 -63 -33
-332 -71 -332 -48 0 6 15 19 33 28 35 18 114 82 177 145 35 35 45 39 88 39 35
0 54 -6 70 -20z"/>
        <path d="M7005 5960 c-121 -24 -262 -106 -370 -215 -75 -76 -156 -197 -141
-213 4 -3 41 28 84 70 125 122 352 281 475 333 68 28 42 43 -48 25z"/>
    </g>
</svg>
